<svg width="109px" height="35px" viewBox="0 0 361 114" fill="none" xmlns="http://www.w3.org/2000/svg">
<g clip-path="url(#clip0_1_11)">
<path d="M42.4804 54.3693C42.4804 49.4413 46.2685 45.4717 51.0037 45.061C50.733 42.7341 50.192 40.544 49.2449 38.6274C47.892 35.8899 46.1334 33.5627 43.698 31.7832C41.3982 29.8667 38.6923 28.4979 35.5808 27.6765C32.4693 26.7184 29.2222 26.3078 25.7048 26.3078C22.4578 26.3078 19.3462 26.7184 16.2346 27.6765C13.123 28.6347 10.4172 30.0037 7.982 31.7832C5.54682 33.5627 3.65279 35.8899 2.16461 38.6274C0.67644 41.365 0 44.5136 0 48.2095V65.4569C0 69.1529 0.67644 72.3012 2.16461 75.039C3.51749 77.7766 5.54682 79.9668 7.84671 81.8833C10.2819 83.6627 12.9877 85.0315 16.0993 85.8529C19.2109 86.6742 22.3226 87.2219 25.7048 87.2219C28.9517 87.2219 32.0634 86.8113 35.1749 85.8529C38.2864 85.0315 40.9923 83.6627 43.4275 81.8833C45.8627 80.1038 47.7568 77.7766 49.2449 75.039C50.733 72.3012 51.4096 69.1529 51.4096 65.4569V63.9513C46.4039 63.4036 42.4804 59.2972 42.4804 54.3693ZM36.2571 62.4455C36.2571 64.362 35.9867 66.0047 35.3103 67.3735C34.6337 68.7423 33.822 69.8375 32.8752 70.6588C31.7927 71.4799 30.7105 72.1644 29.4929 72.4383C28.2753 72.8489 27.0577 72.9857 25.8401 72.9857C24.4872 72.9857 23.1343 72.8489 21.7814 72.4383C20.5638 72.0276 19.3462 71.4799 18.3992 70.6588C17.3169 69.8375 16.5052 68.7423 15.964 67.3735C15.4228 66.0047 15.017 64.362 15.017 62.4455V50.6733C15.017 48.757 15.2876 47.1143 15.964 45.8823C16.6405 44.6504 17.4522 43.5554 18.3992 42.7341C19.4815 41.9128 20.5638 41.2282 21.9167 40.9544C23.2696 40.544 24.4872 40.4069 25.7048 40.4069C26.9224 40.4069 28.14 40.544 29.3575 40.9544C30.5751 41.365 31.6573 41.9128 32.7398 42.7341C33.822 43.5554 34.6337 44.6504 35.1749 45.8823C35.8513 47.1143 36.122 48.757 36.122 50.6733V62.4455H36.2571Z" fill="#FF9A00"/>
<path d="M104.172 45.061V26.9923H90.3727L89.1551 31.92C85.908 29.8667 82.7965 28.3611 79.9555 27.5397C77.1144 26.7184 74.6793 26.3078 72.6497 26.3078C66.5618 26.3078 61.6915 28.224 58.3093 31.92C55.3329 35.0685 53.7094 39.4488 53.3036 45.061C57.6329 45.7456 61.0152 49.5783 61.0152 54.3693C61.0152 59.0234 57.6329 62.993 53.1685 63.6775V64.9095C53.1685 71.3431 54.6565 76.5446 57.768 80.5145C60.8798 84.3473 65.7501 86.4006 72.2439 86.4006C74.2732 86.4006 76.7086 85.9899 79.6847 85.3054C82.6611 84.6209 85.7729 83.1153 89.2902 81.062V86.8113C89.2902 88.7275 89.0197 90.3702 88.3431 91.6022C87.6668 92.8342 86.8551 93.9291 85.7729 94.7504C84.6904 95.5718 83.4728 96.2563 81.9848 96.5302C80.4964 96.9406 79.0084 97.0776 77.3849 97.0776C76.5732 97.0776 75.491 96.9406 74.2732 96.8038C73.0556 96.667 71.838 96.2563 70.6204 95.8456C69.2677 95.435 68.0502 94.8875 66.8323 94.203C65.6147 93.5184 64.5325 92.5603 63.5854 91.4654L53.9802 101.595C55.7387 103.511 57.4975 105.154 59.5268 106.386C61.421 107.618 63.4503 108.576 65.4796 109.397C67.5089 110.082 69.5382 110.629 71.5675 110.903C73.5968 111.177 75.491 111.314 77.3849 111.314C80.3613 111.314 83.4728 110.903 86.5846 110.082C89.6961 109.261 92.6725 107.891 95.243 106.112C97.8135 104.333 99.978 102.142 101.601 99.4046C103.225 96.667 104.172 93.5184 104.172 89.8227V63.5407C99.8428 62.7194 96.596 58.8866 96.596 54.2325C96.596 49.7151 99.8428 45.8823 104.172 45.061ZM89.1551 66.6889C86.7197 68.1948 84.4199 69.4268 81.9848 70.3849C79.5496 71.3431 77.3849 71.8905 75.491 71.8905C73.3263 71.8905 71.5675 71.2063 70.2146 69.8375C68.7265 68.4684 68.0502 66.1415 68.0502 62.8562V49.7151C68.0502 46.4298 68.7265 44.1029 70.2146 42.7341C71.7029 41.365 73.4614 40.6808 75.491 40.6808C77.5203 40.6808 79.6847 41.2282 82.2552 42.1864C84.8258 43.1448 87.1256 44.5136 89.1551 46.0192V66.6889Z" fill="#FF9A00"/>
<path d="M151.095 32.0883C148.752 30.1615 146.133 28.7853 143.101 27.8218C140.069 26.8584 136.761 26.3078 133.04 26.3078C129.732 26.3078 126.425 26.8584 123.392 27.8218C120.36 28.7853 117.604 30.1615 115.261 32.0883C112.918 33.8776 111.126 36.2173 109.61 38.97C108.645 40.8968 107.956 43.0992 107.68 45.4388C112.091 46.2646 115.261 50.1184 115.261 54.6604C115.261 59.3399 111.815 63.1936 107.405 64.0195V65.8085C107.405 69.387 108.094 72.5528 109.472 75.3052C110.85 78.0579 112.642 80.2602 114.985 82.1871C117.328 83.9764 119.947 85.3526 123.117 86.316C126.149 87.2795 129.456 87.6923 132.764 87.6923C136.072 87.6923 139.242 87.2795 142.274 86.316C145.306 85.3526 148.063 83.9764 150.406 82.1871C152.749 80.3978 154.678 78.0579 156.057 75.3052C157.435 72.5528 158.124 69.387 158.124 65.8085V48.4667C158.124 44.8882 157.435 41.7227 156.194 38.97C155.092 36.2173 153.3 33.8776 151.095 32.0883ZM145.582 63.3312C145.582 65.5333 145.168 67.4602 144.479 69.1118C143.653 70.6259 142.688 72.0021 141.585 72.9656C140.345 73.929 138.966 74.6172 137.45 75.03C135.934 75.4431 134.418 75.7183 133.04 75.7183C129.594 75.7183 126.562 74.7548 124.082 72.9656C121.601 71.1763 120.36 67.8732 120.36 63.4688V50.8066C120.36 48.6043 120.774 46.6774 121.463 45.026C122.29 43.5119 123.254 42.1357 124.357 41.1723C125.597 40.2089 126.976 39.5206 128.492 39.1076C130.008 38.6948 131.524 38.4196 132.902 38.4196C134.28 38.4196 135.796 38.6948 137.312 39.1076C138.829 39.5206 140.207 40.2089 141.447 41.1723C142.688 42.1357 143.652 43.3743 144.342 45.026C145.168 46.5398 145.444 48.4667 145.444 50.8066V63.3312H145.582Z" fill="black"/>
<path d="M193.308 26.3078C192.202 26.3078 191.097 26.3078 189.853 26.4403C188.609 26.5729 187.227 26.838 185.707 27.3682C184.187 27.8985 182.39 28.5612 180.455 29.3569C178.521 30.2848 176.309 31.3452 173.96 32.8034L172.716 26.9705H161.107V84.6368H173.822V44.0716C176.862 42.2155 179.764 40.7574 182.528 39.8295C185.292 38.769 187.642 38.3713 189.853 38.3713C192.479 38.3713 194.69 39.1667 196.486 40.6248C198.283 42.083 199.112 44.867 199.112 48.844V84.7693H211.827V46.8553C211.827 40.3597 210.306 35.3222 207.266 31.7429C204.225 28.1636 199.527 26.3078 193.308 26.3078Z" fill="black"/>
<path d="M231.76 72.2206C230.563 71.5533 230.031 69.8178 230.031 66.8809V0H217.793V69.0169C217.793 71.4197 217.926 73.5557 218.325 75.5581C218.725 77.4269 219.39 79.1624 220.454 80.4975C221.518 81.8324 222.981 82.9003 224.844 83.7012C226.706 84.5024 229.233 84.7693 232.293 84.7693C233.224 84.7693 234.288 84.7693 235.352 84.6357C236.416 84.5024 237.613 84.3688 238.678 84.1018L238.412 73.2887C235.086 73.2887 232.958 72.8882 231.76 72.2206Z" fill="black"/>
<path d="M241.661 26.3078H253.595V84.7693H241.661V26.3078Z" fill="black"/>
<path d="M246.065 2.92302C243.934 2.92302 242.229 3.61243 240.808 4.99124C239.388 6.37003 238.677 8.16249 238.677 10.2307C238.677 12.2989 239.388 14.0914 240.808 15.4702C242.229 16.849 244.076 17.5384 246.065 17.5384C248.196 17.5384 250.043 16.849 251.464 15.4702C252.884 14.0914 253.595 12.2989 253.595 10.2307C253.595 8.16249 252.884 6.37003 251.464 4.99124C250.043 3.61243 248.196 2.92302 246.065 2.92302Z" fill="black"/>
<path d="M291.762 26.3078C290.655 26.3078 289.551 26.3078 288.306 26.4403C287.064 26.5729 285.681 26.838 284.16 27.3682C282.642 27.8985 280.845 28.5612 278.91 29.3569C276.975 30.2848 274.763 31.3452 272.414 32.8034L271.169 26.9705H259.562V84.6368H272.276V44.0716C275.316 42.2155 278.219 40.7574 280.983 39.8295C283.746 38.769 286.095 38.3713 288.306 38.3713C290.934 38.3713 293.145 39.1667 294.94 40.6248C296.737 42.083 297.567 44.867 297.567 48.844V84.7693H310.282V46.8553C310.282 40.3597 308.761 35.3222 305.719 31.7429C302.68 28.1636 297.982 26.3078 291.762 26.3078Z" fill="black"/>
<path d="M361 59.3569V48.165C361 44.7416 360.464 41.5814 359.261 38.948C358.059 36.3146 356.453 33.9447 354.314 32.1013C352.174 30.2577 349.634 28.8094 346.693 27.7561C343.752 26.7028 340.542 26.3078 337.065 26.3078C333.588 26.3078 330.514 26.8345 327.706 27.8878C324.897 28.9412 322.357 30.3895 320.085 32.3646C317.945 34.3397 316.207 36.5781 315.002 39.4748C313.799 42.2399 313.263 45.3998 313.263 48.8233V63.8336C313.263 67.3888 313.932 70.4173 315.27 73.0507C316.608 75.6841 318.346 77.7907 320.751 79.634C323.026 81.3459 325.699 82.6625 328.64 83.4525C331.584 84.2426 334.793 84.7693 338.135 84.7693C341.745 84.7693 345.355 84.2426 349.1 83.1892C352.71 82.1359 356.185 80.0291 359.394 76.8691C358.192 75.4208 356.989 73.9722 355.784 72.6556C354.582 71.3388 353.379 69.8905 352.174 68.4422C349.634 70.6805 347.226 72.1289 344.686 72.6556C342.146 73.3139 340.006 73.5772 338.268 73.5772C336.664 73.5772 335.058 73.3139 333.588 72.9189C332.117 72.5239 330.78 71.8656 329.577 70.9438C328.507 70.0222 327.57 68.9689 326.904 67.5206C326.235 66.072 325.834 64.3604 325.834 62.3853V59.4886H361V59.3569ZM325.699 48.6918C325.699 44.8733 326.904 42.1082 329.176 40.133C331.448 38.2897 334.124 37.2364 337.333 37.2364C340.407 37.2364 343.083 38.1579 345.355 40.0015C347.63 41.8449 348.699 44.7416 348.699 48.6918V50.4034H325.699V48.6918Z" fill="black"/>
</g>
<defs>
<clipPath id="clip0_1_11">
<rect width="361" height="114" fill="white"/>
</clipPath>
</defs>
</svg>
